<svg width="269" height="269" viewBox="0 0 269 269" fill="none" xmlns="http://www.w3.org/2000/svg">
<path d="M251.187 170.116H163.03V119.086H251.187V170.116ZM163.568 169.578H250.649V119.624H163.568V169.578Z" fill="#E0E0E0"/>
<path d="M232.997 146.298H174.823V148.004H232.997V146.298Z" fill="#F0F0F0"/>
<path d="M237.005 152.658H174.823V154.519H237.005V152.658Z" fill="#F0F0F0"/>
<path d="M237.005 159.092H174.823V160.953H237.005V159.092Z" fill="#F0F0F0"/>
<path d="M195.154 137.061H174.823V141.489H195.154V137.061Z" fill="#F0F0F0"/>
<path d="M250.918 119.361H163.299V127.484H250.918V119.361Z" fill="#E0E0E0"/>
<path d="M244.177 126.269C244.064 126.161 245.194 124.8 246.7 123.229C248.206 121.658 249.514 120.469 249.627 120.577C249.74 120.684 248.61 122.045 247.104 123.616C245.597 125.187 244.29 126.376 244.177 126.269Z" fill="white"/>
<path d="M249.621 126.269C249.508 126.376 248.201 125.187 246.695 123.616C245.188 122.045 244.058 120.684 244.171 120.577C244.284 120.469 245.592 121.658 247.098 123.229C248.604 124.8 249.734 126.161 249.621 126.269Z" fill="white"/>
<path d="M142.688 18.3189H55.0697V68.8102H142.688V18.3189Z" fill="#E6E6E6"/>
<path d="M124.773 45.2566H66.599V46.962H124.773V45.2566Z" fill="#F0F0F0"/>
<path d="M128.781 51.6211H66.599V53.4826H128.781V51.6211Z" fill="#F0F0F0"/>
<path d="M128.781 58.0556H66.599V59.9171H128.781V58.0556Z" fill="#F0F0F0"/>
<path d="M86.93 36.0245H66.599V40.4522H86.93V36.0245Z" fill="#F0F0F0"/>
<path d="M142.688 18.3189H55.0697V26.4427H142.688V18.3189Z" fill="#E0E0E0"/>
<path d="M135.652 25.1892C135.539 25.0816 136.668 23.7204 138.175 22.1495C139.681 20.5785 140.988 19.3895 141.101 19.4971C141.214 19.6047 140.085 20.9659 138.578 22.5368C137.072 24.1078 135.759 25.2968 135.652 25.1892Z" fill="white"/>
<path d="M141.096 25.1892C140.983 25.2968 139.676 24.1078 138.169 22.5368C136.663 20.9659 135.533 19.6047 135.646 19.4971C135.759 19.3895 137.066 20.5785 138.573 22.1495C140.079 23.7204 141.209 25.0869 141.096 25.1892Z" fill="white"/>
<path d="M109.505 112.114H21.3478V61.0845H109.505V112.114ZM21.8858 111.576H108.967V61.6225H21.8858V111.576Z" fill="#E0E0E0"/>
<path d="M91.3201 88.2966H33.1462V90.002H91.3201V88.2966Z" fill="#F0F0F0"/>
<path d="M95.3282 94.6557H33.1462V96.5172H95.3282V94.6557Z" fill="#F0F0F0"/>
<path d="M95.3282 101.09H33.1462V102.952H95.3282V101.09Z" fill="#F0F0F0"/>
<path d="M53.4772 79.0591H33.1462V83.4869H53.4772V79.0591Z" fill="#F0F0F0"/>
<path d="M109.236 61.3535H21.6169V69.4773H109.236V61.3535Z" fill="#E0E0E0"/>
<path d="M211.246 123.805H107.788V216.427H211.246V123.805Z" fill="#E6E6E6"/>
<path d="M112.991 94.6288H31.9464V178.831H112.991V94.6288Z" fill="#F0F0F0"/>
<path d="M112.991 94.6288H31.9464V103.802H112.991V94.6288Z" fill="#E0E0E0"/>
<path d="M38.6392 99.1211C38.6392 100.106 37.8752 100.902 36.9391 100.902C35.9976 100.902 35.239 100.106 35.239 99.1211C35.239 98.1366 36.003 97.3403 36.9391 97.3403C37.8752 97.3457 38.6392 98.142 38.6392 99.1211Z" fill="white"/>
<path d="M45.5417 99.1211C45.5417 100.106 44.7777 100.902 43.8416 100.902C42.9001 100.902 42.1415 100.106 42.1415 99.1211C42.1415 98.1366 42.9055 97.3403 43.8416 97.3403C44.7777 97.3457 45.5417 98.142 45.5417 99.1211Z" fill="white"/>
<path d="M52.4442 99.1211C52.4442 100.106 51.6803 100.902 50.7441 100.902C49.8026 100.902 49.0441 100.106 49.0441 99.1211C49.0441 98.1366 49.808 97.3403 50.7441 97.3403C51.6803 97.3457 52.4442 98.142 52.4442 99.1211Z" fill="white"/>
<path d="M239.614 36.7346H136.157V139.848H239.614V36.7346Z" fill="#F0F0F0"/>
<path d="M239.614 36.7346H136.157V48.8128H239.614V36.7346Z" fill="#E0E0E0"/>
<path d="M144.969 42.6526C144.969 43.9438 143.969 44.9929 142.731 44.9929C141.494 44.9929 140.493 43.9438 140.493 42.6526C140.493 41.3614 141.494 40.3123 142.731 40.3123C143.963 40.3123 144.969 41.3614 144.969 42.6526Z" fill="white"/>
<path d="M153.4 41.0709C154.315 41.9855 154.347 43.4381 153.47 44.3097C152.593 45.1866 151.146 45.1544 150.231 44.2398C149.317 43.3252 149.284 41.8726 150.161 41.001C151.033 40.1241 152.485 40.1563 153.4 41.0709Z" fill="white"/>
<path d="M163.143 42.6526C163.143 43.9438 162.142 44.9929 160.905 44.9929C159.668 44.9929 158.667 43.9438 158.667 42.6526C158.667 41.3614 159.668 40.3123 160.905 40.3123C162.137 40.3123 163.143 41.3614 163.143 42.6526Z" fill="white"/>
<path d="M217.266 243.784C217.266 243.859 179.907 243.924 133.833 243.924C87.7424 243.924 50.3945 243.859 50.3945 243.784C50.3945 243.709 87.7424 243.644 133.833 243.644C179.907 243.644 217.266 243.709 217.266 243.784Z" fill="#263238"/>
<path d="M180.865 177.922C172.553 172.117 170.67 161.335 170.998 151.651C171.052 150.032 170.874 148.332 171.644 146.912C172.413 145.491 174.21 144.523 175.657 145.206C176.857 145.771 177.384 147.17 178.051 148.321C178.944 149.86 180.278 151.13 181.844 151.942C182.872 152.475 184.147 152.803 185.163 152.243C186.557 151.474 186.724 149.548 186.713 147.939C186.691 144.943 186.675 141.946 186.659 138.944C186.648 137.335 186.643 135.694 187.143 134.166C187.644 132.639 188.747 131.224 190.28 130.793C191.808 130.363 193.702 131.245 194.024 132.821C194.159 133.478 194.024 134.156 194.067 134.823C194.11 135.49 194.422 136.227 195.057 136.415C195.697 136.604 196.343 136.146 196.822 135.678C198.484 134.053 199.609 131.961 200.663 129.884C201.718 127.807 202.74 125.671 204.246 123.901C205.753 122.131 207.835 120.727 210.137 120.598C212.44 120.469 214.893 121.889 215.48 124.149C216.061 126.414 214.743 128.717 213.301 130.551C211.165 133.273 208.636 135.684 205.828 137.674C205.322 138.035 204.774 138.422 204.58 139.019C204.23 140.09 205.247 141.155 206.307 141.51C207.507 141.908 208.809 141.785 210.062 141.935C211.316 142.08 212.677 142.635 213.15 143.824C213.807 145.47 212.435 147.191 211.079 148.321C208.367 150.581 205.274 152.367 201.976 153.577C200.792 154.008 199.55 154.39 198.592 155.224C197.64 156.058 197.064 157.499 197.64 158.635C198.215 159.77 199.695 160.13 200.938 159.899C202.175 159.668 203.289 158.995 204.467 158.549C206.678 157.715 209.529 157.865 210.95 159.775C211.881 161.029 211.961 162.777 211.493 164.278C211.025 165.774 210.067 167.065 209.056 168.254C205.516 172.413 200.981 175.759 195.848 177.535C190.71 179.305 185.96 179.789 180.865 177.922Z" fill="#FB4566"/>
<path d="M213.156 121.943C213.161 121.948 213.107 121.997 213 122.094C212.881 122.201 212.725 122.341 212.521 122.519C212.101 122.89 211.477 123.439 210.697 124.17C209.131 125.623 206.936 127.813 204.553 130.804C203.359 132.294 202.11 133.984 200.808 135.818C199.512 137.658 198.135 139.633 196.763 141.763C195.396 143.893 194.024 146.175 192.792 148.639C192.174 149.871 191.619 151.156 191.055 152.469C190.495 153.782 189.925 155.111 189.349 156.456C187.063 161.852 185.056 167.065 183.619 171.934C182.172 176.803 181.317 181.311 180.94 185.131C180.553 188.956 180.633 192.077 180.79 194.218C180.876 195.289 180.956 196.123 181.032 196.682C181.064 196.951 181.085 197.161 181.107 197.322C181.123 197.468 181.128 197.543 181.123 197.543C181.118 197.543 181.102 197.473 181.08 197.328C181.053 197.172 181.021 196.962 180.978 196.693C180.881 196.133 180.784 195.305 180.682 194.229C180.488 192.088 180.381 188.956 180.741 185.115C181.091 181.279 181.935 176.744 183.367 171.859C184.792 166.968 186.799 161.739 189.085 156.343C189.661 154.998 190.231 153.664 190.796 152.351C191.361 151.043 191.921 149.747 192.545 148.51C193.782 146.035 195.165 143.748 196.542 141.618C197.919 139.487 199.307 137.513 200.615 135.678C201.928 133.844 203.186 132.16 204.397 130.675C206.807 127.689 209.034 125.521 210.627 124.09C211.418 123.374 212.053 122.836 212.488 122.481C212.698 122.309 212.86 122.18 212.983 122.078C213.096 121.981 213.156 121.938 213.156 121.943Z" fill="#263238"/>
<path d="M192.626 148.488C192.604 148.493 192.55 148.246 192.469 147.799C192.383 147.353 192.287 146.707 192.174 145.906C191.948 144.302 191.706 142.08 191.453 139.633C191.2 137.179 190.931 134.968 190.678 133.376C190.554 132.579 190.447 131.934 190.371 131.493C190.296 131.046 190.264 130.799 190.28 130.793C190.301 130.788 190.371 131.03 190.484 131.466C190.597 131.901 190.737 132.542 190.888 133.338C191.194 134.93 191.496 137.147 191.749 139.6C191.991 142.021 192.211 144.211 192.383 145.879C192.464 146.632 192.534 147.272 192.588 147.783C192.631 148.235 192.647 148.488 192.626 148.488Z" fill="#263238"/>
<path d="M213.306 144.625C213.306 144.647 213.01 144.679 212.483 144.722C211.95 144.77 211.187 144.835 210.24 144.943C208.346 145.147 205.737 145.524 202.88 146.062C200.023 146.605 197.457 147.208 195.617 147.697C194.691 147.934 193.949 148.149 193.438 148.294C192.927 148.44 192.636 148.51 192.631 148.493C192.625 148.472 192.9 148.364 193.406 148.181C193.911 148.004 194.643 147.756 195.563 147.493C197.398 146.949 199.964 146.314 202.831 145.766C205.699 145.228 208.319 144.883 210.223 144.733C211.176 144.652 211.95 144.62 212.483 144.604C213.01 144.598 213.306 144.604 213.306 144.625Z" fill="#263238"/>
<path d="M183.619 171.471C183.609 171.477 183.56 171.391 183.48 171.219C183.383 171.014 183.27 170.772 183.124 170.471C182.818 169.82 182.404 168.867 181.909 167.684C180.913 165.317 179.638 161.997 178.277 158.323C176.916 154.643 175.679 151.318 174.732 148.935C174.269 147.772 173.887 146.82 173.602 146.11C173.478 145.803 173.381 145.551 173.301 145.341C173.236 145.163 173.204 145.066 173.215 145.066C173.225 145.061 173.274 145.147 173.354 145.319C173.451 145.524 173.564 145.766 173.709 146.067C174.016 146.718 174.43 147.67 174.925 148.854C175.921 151.221 177.196 154.541 178.557 158.22C179.913 161.9 181.155 165.22 182.102 167.609C182.565 168.771 182.947 169.723 183.232 170.433C183.356 170.74 183.453 170.998 183.533 171.202C183.598 171.369 183.63 171.466 183.619 171.471Z" fill="#263238"/>
<path d="M211.1 162.611C211.1 162.621 211.009 162.659 210.826 162.723C210.611 162.793 210.347 162.885 210.03 162.992C209.293 163.229 208.297 163.552 207.087 163.945C204.601 164.752 201.185 165.903 197.408 167.184C193.632 168.464 190.199 169.583 187.697 170.342C186.444 170.718 185.432 171.014 184.728 171.202C184.399 171.288 184.13 171.358 183.915 171.418C183.727 171.461 183.63 171.482 183.625 171.471C183.625 171.461 183.716 171.423 183.899 171.358C184.114 171.288 184.378 171.197 184.695 171.089C185.432 170.853 186.428 170.53 187.638 170.137C190.124 169.33 193.54 168.179 197.317 166.898C201.094 165.618 204.526 164.499 207.028 163.746C208.281 163.369 209.293 163.073 209.998 162.885C210.326 162.799 210.595 162.729 210.81 162.67C210.998 162.621 211.095 162.605 211.1 162.611Z" fill="#263238"/>
<path d="M199.889 32.1079L197.118 33.0978L195.934 29.477C193.75 22.8005 186.772 19.2281 180.386 21.5093C174 23.7958 170.584 31.0857 172.773 37.7622L173.957 41.383L171.175 42.3783C169.013 43.153 167.84 45.6439 168.582 47.9089L176.297 71.4679C177.05 73.7652 179.439 74.9918 181.602 74.2171L210.315 63.9467C212.51 63.1612 213.683 60.6595 212.93 58.3623L205.215 34.8032C204.478 32.5383 202.089 31.3224 199.889 32.1079ZM178.003 35.89C176.803 32.2316 178.675 28.2343 182.178 26.9807C185.675 25.7272 189.5 27.6909 190.694 31.3493L191.878 34.97L179.186 39.5107L178.003 35.89ZM194.148 56.7967L196.117 62.8115C196.198 63.0644 196.053 63.328 195.81 63.4141L193.056 64.3986C192.846 64.4739 192.577 64.361 192.491 64.1081L190.522 58.0933C188.386 58.0018 186.406 56.5869 185.664 54.3273C184.712 51.4167 186.202 48.2371 188.994 47.2364C191.786 46.2357 194.826 47.7959 195.778 50.7065C196.521 52.9715 195.784 55.3548 194.148 56.7967Z" fill="#FB4566"/>
<path d="M196.994 33.0332C197.021 33.1085 191.856 35.0399 185.459 37.3533C179.063 39.6667 173.855 41.4798 173.828 41.4099C173.801 41.3345 178.966 39.4031 185.363 37.0897C191.765 34.7763 196.967 32.9633 196.994 33.0332Z" fill="#263238"/>
<path d="M203.095 34.0231C203.1 34.0231 203.122 34.0716 203.16 34.163C203.203 34.2706 203.251 34.4105 203.316 34.5827C203.455 34.9754 203.644 35.5188 203.891 36.2128C204.386 37.6546 205.091 39.7044 205.957 42.2276C206.823 44.7778 207.846 47.8013 208.986 51.1584C209.546 52.8424 210.164 54.5963 210.751 56.447C211.025 57.3777 211.251 58.3676 211.154 59.4006C211.106 59.9117 210.966 60.4228 210.718 60.8909C210.466 61.3535 210.111 61.757 209.702 62.0906C208.873 62.7523 207.905 63.1397 206.969 63.484C206.027 63.823 205.102 64.1511 204.193 64.4793C202.374 65.1303 200.62 65.7597 198.947 66.3569C195.606 67.5459 192.599 68.6165 190.065 69.5204C187.547 70.4081 185.502 71.1236 184.066 71.6293C183.372 71.866 182.823 72.0543 182.43 72.1888C182.253 72.248 182.113 72.2911 182.005 72.3287C181.909 72.361 181.86 72.3718 181.855 72.3664C181.855 72.361 181.898 72.3395 181.995 72.3018C182.102 72.2588 182.242 72.205 182.414 72.135C182.802 71.9898 183.345 71.7853 184.034 71.5271C185.465 70.9999 187.498 70.252 190 69.3321C192.529 68.4121 195.531 67.3253 198.866 66.1148C200.534 65.5123 202.288 64.8774 204.106 64.2211C205.016 63.8929 205.941 63.5593 206.877 63.2204C207.802 62.8761 208.749 62.4941 209.529 61.87C209.917 61.558 210.245 61.1814 210.476 60.7564C210.708 60.326 210.837 59.8525 210.88 59.3737C210.971 58.4053 210.756 57.4423 210.492 56.5277C209.911 54.6985 209.298 52.9285 208.744 51.2445C207.625 47.882 206.619 44.8477 205.774 42.2922C204.946 39.7582 204.268 37.6977 203.794 36.2504C203.574 35.551 203.396 34.9969 203.267 34.6042C203.213 34.4266 203.17 34.2868 203.138 34.1738C203.1 34.0769 203.09 34.0285 203.095 34.0231Z" fill="#263238"/>
<path d="M187.945 26.6041C187.929 26.6256 187.66 26.4588 187.133 26.249C186.6 26.0446 185.798 25.8079 184.781 25.7756C183.77 25.7379 182.543 25.8939 181.317 26.4319C180.095 26.9592 178.89 27.9007 178.03 29.1811C177.153 30.4562 176.765 31.9303 176.765 33.2645C176.754 34.6095 177.04 35.8039 177.314 36.7831C177.599 37.7676 177.89 38.5423 178.078 39.0857C178.272 39.6291 178.374 39.925 178.358 39.9357C178.342 39.9411 178.202 39.656 177.976 39.1234C177.755 38.5907 177.432 37.8214 177.126 36.8369C176.824 35.8523 176.512 34.6418 176.507 33.2592C176.491 31.8819 176.889 30.3378 177.798 29.0197C178.691 27.6962 179.945 26.7278 181.215 26.1898C182.49 25.6465 183.759 25.512 184.792 25.5765C185.836 25.6357 186.648 25.9101 187.176 26.1468C187.434 26.2759 187.633 26.3781 187.762 26.4642C187.886 26.5503 187.95 26.5987 187.945 26.6041Z" fill="#263238"/>
<path d="M188.192 47.6561C188.187 47.6507 188.284 47.6023 188.467 47.5216C188.65 47.4355 188.924 47.3279 189.295 47.2203C189.661 47.1073 190.135 47.0212 190.694 46.9889C191.248 46.962 191.905 47.0212 192.582 47.2687C193.954 47.7529 195.224 49.1571 195.848 51.0186C196.149 51.9601 196.176 53.0522 195.875 54.1067C195.552 55.1558 194.966 56.1672 194.116 57.0173L194.153 56.872C194.869 58.8303 195.644 60.9662 196.456 63.1881L196.505 63.3226L196.37 63.3657C195.983 63.4948 195.563 63.6347 195.138 63.7799C194.234 64.0812 193.336 64.3825 192.459 64.6784L192.324 64.7214L192.281 64.5869C191.544 62.3542 190.737 60.256 190.151 58.2439L190.269 58.3354C189.166 58.26 188.176 57.7974 187.391 57.1948C186.6 56.5869 185.992 55.8337 185.583 55.0374C185.18 54.2412 184.981 53.3965 185.013 52.6164C185.034 51.8363 185.212 51.1315 185.465 50.5397C185.965 49.34 186.713 48.5868 187.267 48.1725C187.827 47.7637 188.192 47.6561 188.192 47.6561C188.203 47.6776 187.853 47.8175 187.31 48.2425C186.783 48.6675 186.067 49.4207 185.599 50.5989C185.131 51.7502 184.927 53.4019 185.766 54.946C186.17 55.7099 186.761 56.4308 187.525 57.0119C188.289 57.5875 189.236 58.0179 190.274 58.0825L190.366 58.0879L190.393 58.174C190.985 60.1699 191.797 62.2628 192.539 64.5062L192.362 64.4201C193.239 64.1242 194.132 63.8283 195.036 63.5217C195.455 63.3818 195.875 63.2419 196.268 63.1074L196.182 63.285C195.375 61.063 194.605 58.9272 193.895 56.9635L193.868 56.8828L193.933 56.8182C194.74 56.022 195.326 55.0374 195.633 54.0367C195.929 53.0253 195.907 51.987 195.633 51.0831C195.047 49.2754 193.836 47.9035 192.523 47.4193C191.878 47.1665 191.243 47.0965 190.699 47.1127C190.156 47.1342 189.688 47.1988 189.322 47.301C188.574 47.5 188.198 47.683 188.192 47.6561Z" fill="#263238"/>
<path d="M171.563 202.998L117.827 202.751C111.366 202.724 106.147 197.457 106.174 190.995L106.745 56.2802C106.771 49.8134 112.038 44.5948 118.505 44.6217L172.241 44.8692C178.702 44.9015 183.921 50.1631 183.894 56.6245L183.323 191.34C183.297 197.806 178.03 203.025 171.563 202.998Z" fill="#455A64"/>
<path d="M172.165 49.5175L161.744 49.4691C160.346 49.4637 159.21 50.6419 159.205 52.0999L159.194 53.9883C159.189 55.4463 158.048 56.6299 156.655 56.6191L136.345 56.5277C134.947 56.5223 133.822 55.3333 133.827 53.8699L133.838 51.9816C133.844 50.5236 132.719 49.3292 131.32 49.3238L127.657 49.3077L118.538 49.2647C114.008 49.2431 110.322 52.9015 110.301 57.4261L109.747 188.919C109.725 193.443 113.378 197.129 117.908 197.15L171.536 197.398C176.066 197.419 179.751 193.766 179.773 189.236L180.327 57.7435C180.343 53.2243 176.69 49.539 172.165 49.5175Z" fill="white"/>
<path d="M164.945 179.864L125.069 179.681C124.655 179.681 124.321 179.229 124.326 178.675L124.369 168.243C124.369 167.689 124.708 167.243 125.123 167.248L164.999 167.431C165.413 167.431 165.747 167.883 165.742 168.437L165.699 178.869C165.699 179.423 165.36 179.87 164.945 179.864Z" fill="#FB4566"/>
<path d="M138.445 172.284C138.424 172.104 138.338 171.964 138.187 171.864C138.036 171.764 137.851 171.713 137.63 171.712C137.469 171.711 137.328 171.737 137.207 171.788C137.088 171.84 136.994 171.911 136.926 172.002C136.859 172.093 136.826 172.196 136.825 172.312C136.825 172.409 136.848 172.493 136.893 172.563C136.941 172.632 137.001 172.689 137.074 172.736C137.147 172.781 137.224 172.819 137.304 172.849C137.385 172.877 137.458 172.901 137.526 172.919L137.895 173.02C137.989 173.045 138.095 173.08 138.21 173.124C138.327 173.169 138.439 173.229 138.545 173.305C138.653 173.38 138.741 173.477 138.81 173.594C138.88 173.712 138.914 173.856 138.913 174.026C138.912 174.223 138.86 174.4 138.757 174.558C138.654 174.716 138.504 174.842 138.307 174.934C138.112 175.027 137.874 175.073 137.595 175.071C137.334 175.07 137.109 175.027 136.919 174.942C136.73 174.857 136.581 174.739 136.473 174.588C136.366 174.438 136.306 174.263 136.292 174.064L136.747 174.066C136.758 174.203 136.804 174.317 136.884 174.407C136.965 174.497 137.068 174.563 137.192 174.608C137.317 174.651 137.452 174.673 137.597 174.674C137.765 174.674 137.916 174.648 138.05 174.594C138.184 174.539 138.29 174.462 138.368 174.365C138.447 174.265 138.487 174.15 138.487 174.017C138.488 173.896 138.454 173.798 138.387 173.722C138.32 173.646 138.232 173.584 138.122 173.536C138.012 173.488 137.893 173.446 137.765 173.41L137.318 173.28C137.035 173.197 136.81 173.08 136.645 172.927C136.48 172.775 136.398 172.576 136.399 172.331C136.4 172.128 136.456 171.95 136.566 171.799C136.678 171.647 136.828 171.53 137.015 171.446C137.204 171.362 137.414 171.32 137.646 171.321C137.881 171.323 138.089 171.365 138.271 171.45C138.453 171.534 138.597 171.648 138.703 171.793C138.81 171.938 138.866 172.102 138.871 172.286L138.445 172.284ZM140.089 171.382L140.073 175.019L139.633 175.017L139.648 171.38L140.089 171.382ZM143.855 171.4L143.84 175.036L143.414 175.034L141.444 172.17L141.409 172.17L141.397 175.025L140.956 175.023L140.972 171.387L141.398 171.388L143.374 174.26L143.41 174.26L143.422 171.398L143.855 171.4ZM147.217 172.552C147.179 172.432 147.128 172.325 147.064 172.23C147.002 172.133 146.927 172.051 146.84 171.984C146.754 171.916 146.656 171.864 146.546 171.828C146.436 171.792 146.315 171.773 146.184 171.773C145.968 171.772 145.772 171.827 145.595 171.937C145.418 172.047 145.277 172.211 145.172 172.427C145.067 172.643 145.014 172.909 145.013 173.223C145.011 173.538 145.063 173.804 145.167 174.021C145.272 174.238 145.414 174.403 145.593 174.515C145.773 174.627 145.975 174.684 146.2 174.685C146.408 174.686 146.592 174.642 146.751 174.554C146.911 174.465 147.036 174.339 147.125 174.176C147.216 174.012 147.262 173.819 147.263 173.596L147.397 173.625L146.304 173.62L146.305 173.229L147.69 173.236L147.689 173.626C147.687 173.926 147.622 174.186 147.493 174.407C147.366 174.627 147.19 174.798 146.966 174.919C146.743 175.039 146.487 175.098 146.198 175.097C145.876 175.095 145.593 175.018 145.35 174.866C145.108 174.713 144.92 174.497 144.785 174.217C144.651 173.937 144.585 173.605 144.587 173.221C144.588 172.934 144.627 172.675 144.705 172.446C144.784 172.216 144.895 172.02 145.038 171.858C145.181 171.697 145.349 171.573 145.544 171.488C145.738 171.402 145.952 171.36 146.185 171.361C146.377 171.362 146.556 171.392 146.721 171.45C146.888 171.508 147.036 171.59 147.166 171.696C147.297 171.8 147.406 171.926 147.493 172.072C147.58 172.217 147.639 172.377 147.672 172.554L147.217 172.552ZM152.245 171.439L152.685 171.441L152.675 173.848C152.674 174.097 152.614 174.319 152.496 174.513C152.379 174.707 152.215 174.859 152.002 174.971C151.79 175.081 151.541 175.136 151.256 175.134C150.971 175.133 150.722 175.076 150.511 174.964C150.3 174.851 150.136 174.697 150.019 174.502C149.904 174.306 149.847 174.084 149.848 173.835L149.858 171.428L150.299 171.43L150.289 173.802C150.288 173.979 150.326 174.137 150.404 174.276C150.481 174.414 150.592 174.523 150.736 174.603C150.881 174.682 151.055 174.721 151.258 174.722C151.46 174.723 151.634 174.685 151.78 174.608C151.926 174.529 152.038 174.421 152.115 174.284C152.194 174.146 152.234 173.988 152.235 173.811L152.245 171.439ZM153.549 175.081L153.564 171.445L154.793 171.45C155.078 171.452 155.311 171.504 155.492 171.608C155.674 171.711 155.808 171.849 155.895 172.024C155.982 172.198 156.025 172.392 156.024 172.607C156.023 172.821 155.978 173.015 155.89 173.19C155.803 173.365 155.669 173.504 155.487 173.607C155.305 173.709 155.073 173.76 154.79 173.759L153.91 173.755L153.911 173.364L154.778 173.368C154.973 173.369 155.13 173.336 155.249 173.269C155.367 173.202 155.454 173.111 155.507 172.997C155.562 172.881 155.59 172.75 155.591 172.605C155.591 172.459 155.565 172.329 155.511 172.214C155.458 172.099 155.372 172.008 155.253 171.943C155.133 171.876 154.975 171.842 154.777 171.841L154.003 171.837L153.989 175.083L153.549 175.081Z" fill="#E8E8E3"/>
<path d="M133.017 88.1627L119.18 88.0988L119.168 90.6382L133.005 90.702L133.017 88.1627Z" fill="#E8505B"/>
<path opacity="0.1" d="M133.017 88.1627L119.18 88.0988L119.168 90.6382L133.005 90.702L133.017 88.1627Z" fill="black"/>
<path d="M173.586 103.743C173.586 103.732 173.699 103.748 173.903 103.667C174.091 103.592 174.393 103.366 174.425 102.941C174.425 102.085 174.42 100.837 174.42 99.2341C174.42 98.4271 174.42 97.534 174.42 96.5549C174.42 96.3074 174.42 96.0599 174.42 95.807C174.425 95.5434 174.425 95.3013 174.269 95.1023C174.129 94.9032 173.887 94.7741 173.634 94.7741C173.36 94.7741 173.075 94.7741 172.789 94.7741C170.503 94.7687 167.894 94.7633 165.021 94.7579C153.497 94.7149 137.588 94.6557 120.022 94.5912C119.791 94.5912 119.565 94.7041 119.431 94.8924C119.28 95.0807 119.285 95.3067 119.291 95.5972C119.291 96.1406 119.285 96.6894 119.285 97.2274C119.28 98.3141 119.275 99.3901 119.269 100.461C119.269 100.993 119.264 101.531 119.264 102.059C119.275 102.311 119.237 102.618 119.285 102.817C119.339 103.032 119.501 103.215 119.705 103.301C119.813 103.344 119.909 103.361 120.039 103.361H120.431L121.217 103.366C121.739 103.366 122.261 103.371 122.777 103.371C126.92 103.393 130.917 103.414 134.726 103.436C142.339 103.484 149.193 103.522 154.955 103.56C160.706 103.603 165.365 103.64 168.593 103.667C170.196 103.683 171.444 103.7 172.3 103.71C172.714 103.716 173.037 103.726 173.263 103.726C173.478 103.732 173.586 103.743 173.586 103.743C173.586 103.743 173.473 103.753 173.258 103.753C173.032 103.753 172.709 103.759 172.295 103.764C171.434 103.764 170.186 103.769 168.588 103.775C165.36 103.769 160.701 103.764 154.949 103.759C149.187 103.743 142.333 103.721 134.721 103.694C130.912 103.678 126.914 103.662 122.772 103.646C122.255 103.646 121.733 103.64 121.211 103.64L120.426 103.635H120.033C119.899 103.64 119.732 103.619 119.592 103.554C119.312 103.436 119.086 103.183 119.011 102.887C118.968 102.736 118.979 102.58 118.979 102.457V102.059C118.979 101.526 118.984 100.993 118.984 100.461C118.989 99.3901 118.995 98.3141 118.995 97.2274C118.995 96.684 119 96.1406 119 95.5972C119.006 95.4573 118.995 95.3336 119.016 95.1668C119.038 95.0108 119.102 94.8602 119.194 94.731C119.377 94.4728 119.694 94.3114 120.012 94.3168C137.577 94.4136 153.486 94.4997 165.01 94.5643C167.888 94.5858 170.492 94.6019 172.784 94.6234C173.069 94.6234 173.349 94.6288 173.629 94.6288C173.93 94.6342 174.215 94.7848 174.382 95.0216C174.565 95.2529 174.565 95.5703 174.554 95.8124C174.554 96.0653 174.549 96.3181 174.549 96.5656C174.538 97.5448 174.533 98.4379 174.527 99.2449C174.506 100.848 174.49 102.096 174.484 102.957C174.436 103.404 174.113 103.635 173.919 103.705C173.704 103.769 173.586 103.743 173.586 103.743Z" fill="#E0E0E0"/>
<path d="M148.199 97.9809L122.892 97.864L122.881 100.237L148.188 100.353L148.199 97.9809Z" fill="#E8505B"/>
<path opacity="0.2" d="M148.199 97.9809L122.892 97.864L122.881 100.237L148.188 100.353L148.199 97.9809Z" fill="white"/>
<path d="M132.92 111.329L119.083 111.265L119.071 113.805L132.909 113.869L132.92 111.329Z" fill="#E8505B"/>
<path opacity="0.1" d="M132.92 111.329L119.083 111.265L119.071 113.805L132.909 113.869L132.92 111.329Z" fill="black"/>
<path d="M173.231 126.909C173.231 126.898 173.344 126.909 173.548 126.85C173.742 126.785 174.059 126.624 174.231 126.242C174.323 126.053 174.334 125.822 174.323 125.558C174.323 125.295 174.323 125.01 174.317 124.703C174.317 124.084 174.317 123.369 174.312 122.573C174.312 121.771 174.312 120.878 174.312 119.904C174.312 119.662 174.312 119.409 174.312 119.156C174.323 118.898 174.29 118.661 174.156 118.446C174.027 118.236 173.817 118.069 173.57 117.994C173.327 117.919 173.042 117.962 172.757 117.946C170.476 117.94 167.883 117.935 165.01 117.93C153.524 117.887 137.674 117.827 120.168 117.763C119.684 117.752 119.232 118.15 119.183 118.629C119.167 119.14 119.172 119.705 119.167 120.238C119.162 121.319 119.156 122.395 119.151 123.46C119.151 123.993 119.146 124.525 119.146 125.053C119.156 125.316 119.119 125.591 119.178 125.806C119.237 126.027 119.382 126.226 119.571 126.36C119.77 126.495 119.979 126.543 120.238 126.532L121.018 126.538C121.54 126.538 122.056 126.543 122.573 126.543C126.699 126.565 130.686 126.586 134.479 126.608C142.064 126.656 148.897 126.694 154.637 126.731C160.367 126.774 165.01 126.812 168.227 126.839C169.825 126.86 171.068 126.871 171.923 126.882C172.338 126.893 172.655 126.898 172.886 126.898C173.123 126.898 173.231 126.909 173.231 126.909C173.231 126.909 173.118 126.92 172.902 126.92C172.677 126.92 172.359 126.925 171.939 126.93C171.084 126.93 169.841 126.936 168.243 126.941C165.026 126.936 160.383 126.93 154.653 126.925C148.913 126.909 142.08 126.887 134.495 126.86C130.702 126.844 126.715 126.828 122.589 126.812C122.072 126.812 121.556 126.807 121.034 126.807L120.254 126.801C119.99 126.817 119.667 126.753 119.431 126.581C119.189 126.414 119.006 126.161 118.925 125.876C118.844 125.575 118.893 125.311 118.882 125.053C118.882 124.525 118.887 123.993 118.887 123.46C118.893 122.395 118.898 121.319 118.898 120.238C118.903 119.689 118.893 119.172 118.914 118.597C118.973 117.978 119.549 117.467 120.178 117.483C137.685 117.58 153.534 117.666 165.021 117.731C167.888 117.752 170.481 117.768 172.763 117.79C173.042 117.806 173.327 117.757 173.618 117.849C173.898 117.935 174.134 118.129 174.28 118.371C174.436 118.607 174.468 118.909 174.452 119.156C174.452 119.409 174.447 119.662 174.447 119.904C174.436 120.878 174.43 121.771 174.425 122.573C174.414 123.374 174.409 124.084 174.403 124.703C174.398 125.01 174.398 125.295 174.393 125.558C174.398 125.817 174.382 126.07 174.28 126.263C174.091 126.661 173.758 126.823 173.553 126.877C173.344 126.925 173.231 126.909 173.231 126.909Z" fill="#E0E0E0"/>
<path d="M132.818 135.496L118.981 135.433L118.969 137.972L132.806 138.036L132.818 135.496Z" fill="#E8505B"/>
<path opacity="0.1" d="M132.818 135.496L118.981 135.433L118.969 137.972L132.806 138.036L132.818 135.496Z" fill="black"/>
<path d="M173.128 151.07C173.128 151.06 173.241 151.07 173.446 151.011C173.64 150.947 173.957 150.785 174.129 150.403C174.221 150.215 174.231 149.984 174.221 149.72C174.221 149.456 174.221 149.171 174.215 148.865C174.215 148.246 174.215 147.53 174.21 146.734C174.21 145.932 174.21 145.039 174.21 144.066C174.21 143.824 174.21 143.571 174.21 143.318C174.221 143.06 174.188 142.823 174.054 142.608C173.925 142.398 173.715 142.231 173.467 142.156C173.225 142.08 172.94 142.123 172.655 142.107C170.374 142.102 167.781 142.097 164.913 142.091C153.427 142.048 137.577 141.989 120.071 141.924C119.587 141.914 119.135 142.306 119.086 142.791C119.07 143.302 119.076 143.867 119.07 144.399C119.065 145.481 119.059 146.557 119.054 147.622C119.054 148.154 119.049 148.687 119.049 149.214C119.059 149.478 119.022 149.752 119.081 149.967C119.14 150.188 119.285 150.387 119.474 150.522C119.673 150.656 119.883 150.705 120.141 150.694L120.921 150.699C121.443 150.699 121.959 150.705 122.476 150.705C126.602 150.726 130.589 150.748 134.382 150.769C141.967 150.818 148.8 150.855 154.541 150.893C160.27 150.936 164.913 150.974 168.13 151C169.728 151.022 170.971 151.033 171.826 151.043C172.241 151.049 172.564 151.06 172.789 151.06C173.021 151.06 173.128 151.07 173.128 151.07C173.128 151.07 173.015 151.081 172.8 151.081C172.574 151.081 172.257 151.087 171.837 151.092C170.982 151.092 169.739 151.097 168.141 151.103C164.924 151.097 160.281 151.092 154.551 151.087C148.811 151.07 141.978 151.049 134.392 151.022C130.6 151.006 126.613 150.99 122.486 150.974C121.97 150.974 121.454 150.968 120.932 150.968L120.152 150.963C119.888 150.979 119.565 150.914 119.328 150.742C119.086 150.575 118.903 150.323 118.823 150.037C118.742 149.736 118.79 149.473 118.78 149.209C118.78 148.682 118.785 148.149 118.785 147.616C118.79 146.551 118.796 145.475 118.796 144.394C118.801 143.845 118.79 143.329 118.812 142.753C118.871 142.134 119.447 141.623 120.076 141.639C137.583 141.736 153.432 141.822 164.919 141.887C167.786 141.908 170.379 141.924 172.66 141.946C172.94 141.962 173.225 141.914 173.516 142.005C173.796 142.091 174.032 142.285 174.178 142.527C174.334 142.764 174.366 143.065 174.35 143.312C174.35 143.565 174.344 143.818 174.344 144.06C174.334 145.034 174.328 145.927 174.323 146.729C174.312 147.53 174.307 148.241 174.301 148.859C174.296 149.166 174.296 149.451 174.29 149.715C174.296 149.973 174.28 150.226 174.178 150.419C173.989 150.818 173.656 150.979 173.451 151.033C173.247 151.092 173.128 151.07 173.128 151.07Z" fill="#E0E0E0"/>
<path d="M148.102 121.147L122.795 121.031L122.784 123.403L148.091 123.52L148.102 121.147Z" fill="#E8505B"/>
<path opacity="0.2" d="M148.102 121.147L122.795 121.031L122.784 123.403L148.091 123.52L148.102 121.147Z" fill="white"/>
<path d="M125.09 146.68C125.085 147.331 124.59 147.859 123.977 147.853C123.363 147.848 122.874 147.321 122.874 146.67C122.879 146.019 123.374 145.491 123.988 145.497C124.601 145.497 125.096 146.029 125.09 146.68Z" fill="#E8505B"/>
<path d="M128.517 146.696C128.512 147.347 128.017 147.875 127.404 147.869C126.79 147.869 126.301 147.337 126.301 146.686C126.301 146.035 126.801 145.507 127.415 145.513C128.028 145.513 128.523 146.04 128.517 146.696Z" fill="#E8505B"/>
<path d="M131.95 146.713C131.95 147.364 131.45 147.891 130.836 147.885C130.223 147.885 129.733 147.353 129.733 146.702C129.739 146.051 130.234 145.524 130.847 145.529C131.46 145.529 131.95 146.056 131.95 146.713Z" fill="#E8505B"/>
<path d="M135.377 146.729C135.377 147.38 134.877 147.907 134.263 147.902C133.65 147.902 133.16 147.369 133.16 146.718C133.16 146.067 133.661 145.54 134.274 145.545C134.887 145.545 135.382 146.072 135.377 146.729Z" fill="#E8505B"/>
<path d="M138.804 146.739C138.804 147.39 138.304 147.918 137.69 147.912C137.077 147.912 136.587 147.38 136.587 146.729C136.593 146.078 137.088 145.551 137.701 145.556C138.314 145.561 138.809 146.089 138.804 146.739Z" fill="#E8505B"/>
<path d="M142.236 146.756C142.236 147.407 141.736 147.934 141.123 147.928C140.509 147.928 140.02 147.396 140.02 146.745C140.02 146.094 140.52 145.567 141.134 145.572C141.741 145.577 142.236 146.105 142.236 146.756Z" fill="#E8505B"/>
<path d="M145.664 146.772C145.658 147.423 145.163 147.95 144.55 147.945C143.937 147.939 143.447 147.412 143.447 146.761C143.447 146.11 143.947 145.583 144.561 145.588C145.174 145.594 145.664 146.121 145.664 146.772Z" fill="#E8505B"/>
<path d="M149.091 146.788C149.091 147.439 148.59 147.966 147.977 147.961C147.364 147.955 146.874 147.428 146.874 146.777C146.874 146.126 147.374 145.599 147.988 145.604C148.601 145.604 149.096 146.137 149.091 146.788Z" fill="#E8505B"/>
<path d="M152.518 146.804C152.518 147.455 152.017 147.982 151.404 147.977C150.791 147.977 150.301 147.444 150.301 146.793C150.306 146.142 150.801 145.615 151.415 145.62C152.028 145.62 152.523 146.153 152.518 146.804Z" fill="#E8505B"/>
<g opacity="0.2">
<path d="M125.09 146.68C125.085 147.331 124.59 147.859 123.977 147.853C123.363 147.848 122.874 147.321 122.874 146.67C122.879 146.019 123.374 145.491 123.988 145.497C124.601 145.497 125.096 146.029 125.09 146.68Z" fill="white"/>
<path d="M128.517 146.696C128.512 147.347 128.017 147.875 127.404 147.869C126.79 147.869 126.301 147.337 126.301 146.686C126.301 146.035 126.801 145.507 127.415 145.513C128.028 145.513 128.523 146.04 128.517 146.696Z" fill="white"/>
<path d="M131.95 146.713C131.95 147.364 131.45 147.891 130.836 147.885C130.223 147.885 129.733 147.353 129.733 146.702C129.739 146.051 130.234 145.524 130.847 145.529C131.46 145.529 131.95 146.056 131.95 146.713Z" fill="white"/>
<path d="M135.377 146.729C135.377 147.38 134.877 147.907 134.263 147.902C133.65 147.902 133.16 147.369 133.16 146.718C133.16 146.067 133.661 145.54 134.274 145.545C134.887 145.545 135.382 146.072 135.377 146.729Z" fill="white"/>
<path d="M138.804 146.739C138.804 147.39 138.304 147.918 137.69 147.912C137.077 147.912 136.587 147.38 136.587 146.729C136.593 146.078 137.088 145.551 137.701 145.556C138.314 145.561 138.809 146.089 138.804 146.739Z" fill="white"/>
<path d="M142.236 146.756C142.236 147.407 141.736 147.934 141.123 147.928C140.509 147.928 140.02 147.396 140.02 146.745C140.02 146.094 140.52 145.567 141.134 145.572C141.741 145.577 142.236 146.105 142.236 146.756Z" fill="white"/>
<path d="M145.664 146.772C145.658 147.423 145.163 147.95 144.55 147.945C143.937 147.939 143.447 147.412 143.447 146.761C143.447 146.11 143.947 145.583 144.561 145.588C145.174 145.594 145.664 146.121 145.664 146.772Z" fill="white"/>
<path d="M149.091 146.788C149.091 147.439 148.59 147.966 147.977 147.961C147.364 147.955 146.874 147.428 146.874 146.777C146.874 146.126 147.374 145.599 147.988 145.604C148.601 145.604 149.096 146.137 149.091 146.788Z" fill="white"/>
<path d="M152.518 146.804C152.518 147.455 152.017 147.982 151.404 147.977C150.791 147.977 150.301 147.444 150.301 146.793C150.306 146.142 150.801 145.615 151.415 145.62C152.028 145.62 152.523 146.153 152.518 146.804Z" fill="white"/>
</g>
<path d="M147.649 69.1384C148.375 68.8371 148.886 68.0893 148.891 67.207C148.897 66.0556 148.025 65.1141 146.944 65.1088C145.863 65.1034 144.986 66.0341 144.98 67.1854C144.975 68.0731 145.497 68.8263 146.228 69.133C143.216 69.5849 143.355 72.8613 143.355 72.8613L150.473 72.8936C150.473 72.8936 150.635 69.5849 147.649 69.1384Z" fill="#E8505B"/>
<path opacity="0.1" d="M147.649 69.1384C148.375 68.8371 148.886 68.0893 148.891 67.207C148.897 66.0556 148.025 65.1141 146.944 65.1088C145.863 65.1034 144.986 66.0341 144.98 67.1854C144.975 68.0731 145.497 68.8263 146.228 69.133C143.216 69.5849 143.355 72.8613 143.355 72.8613L150.473 72.8936C150.473 72.8936 150.635 69.5849 147.649 69.1384Z" fill="black"/>
<path d="M159.219 75.0404L133.831 74.9233L133.817 77.9576L159.205 78.0748L159.219 75.0404Z" fill="#E8505B"/>
<path opacity="0.2" d="M159.219 75.0404L133.831 74.9233L133.817 77.9576L159.205 78.0748L159.219 75.0404Z" fill="white"/>
<path d="M65.8889 90.7498C65.8889 90.7552 65.8028 90.766 65.6414 90.7767C65.4639 90.7875 65.2218 90.809 64.9097 90.8305C64.5869 90.8359 64.1942 90.9059 63.7315 90.9866C63.5002 91.035 63.2473 91.0511 62.9837 91.1264C62.7201 91.2018 62.4457 91.2771 62.1498 91.3578C60.9877 91.7236 59.5889 92.3047 58.1847 93.3269C56.7805 94.3383 55.3764 95.7855 54.2788 97.6739C53.7032 98.5993 53.2835 99.6753 52.9123 100.8C52.6057 101.946 52.3367 103.162 52.3151 104.447C52.256 105.088 52.3205 105.739 52.3474 106.395C52.3636 106.723 52.4335 107.051 52.4765 107.385C52.5196 107.718 52.568 108.052 52.6648 108.38C52.9392 109.72 53.4826 111.027 54.1712 112.286C55.5485 114.809 57.8619 116.983 60.7241 118.242C62.1552 118.871 63.7369 119.215 65.3455 119.28C66.9541 119.382 68.6058 119.124 70.1714 118.586L70.6448 118.414L70.7094 118.392L70.7685 118.419C73.0819 119.592 75.3523 120.749 77.5527 121.862L77.3483 122.035C76.622 119.786 75.9226 117.607 75.2501 115.514L75.2232 115.433L75.2824 115.374C76.9932 113.663 78.1822 111.581 78.8439 109.451C79.5057 107.315 79.6186 105.141 79.3604 103.145C79.1022 101.149 78.4512 99.3309 77.5796 97.803C76.7081 96.2697 75.6267 95.0216 74.5184 94.0532C73.394 93.0901 72.2265 92.4338 71.1828 91.9334C70.1122 91.4869 69.1599 91.2018 68.3691 91.0457C67.9709 90.9758 67.6212 90.9166 67.3146 90.8682C67.0079 90.8467 66.7497 90.8305 66.5345 90.8144C66.3354 90.7983 66.174 90.7875 66.0557 90.7767C65.9427 90.7606 65.8889 90.7552 65.8889 90.7498C65.8889 90.7445 65.9427 90.7445 66.0503 90.7445C66.1686 90.7498 66.33 90.7498 66.5291 90.7606C66.7443 90.7714 67.0079 90.7821 67.3146 90.7929C67.6266 90.8413 67.9817 90.8897 68.3798 90.9489C69.1814 91.0888 70.1445 91.3632 71.2312 91.8043C72.2911 92.2993 73.4747 92.9503 74.6206 93.9187C75.7558 94.8924 76.8587 96.146 77.7518 97.7008C78.6449 99.2449 79.3174 101.09 79.5864 103.118C79.8554 105.141 79.7531 107.353 79.086 109.531C78.4189 111.7 77.2138 113.825 75.4707 115.573L75.5029 115.433C76.1808 117.526 76.8856 119.705 77.6119 121.948L77.7195 122.277L77.4128 122.121C75.2124 121.007 72.9421 119.856 70.6233 118.677L70.7416 118.683L70.2574 118.86C68.6596 119.409 66.9703 119.673 65.324 119.571C63.6777 119.501 62.0637 119.151 60.6003 118.505C57.679 117.214 55.3226 114.992 53.9238 112.42C53.2244 111.14 52.6756 109.8 52.4012 108.439C52.3044 108.106 52.256 107.767 52.2129 107.428C52.1699 107.089 52.0999 106.755 52.0838 106.422C52.0569 105.749 51.9977 105.088 52.0569 104.442C52.0838 103.14 52.3636 101.903 52.681 100.741C53.0683 99.5999 53.4987 98.5132 54.0852 97.5771C55.2096 95.6672 56.6407 94.2146 58.0717 93.2031C59.5028 92.1863 60.9231 91.6106 62.1014 91.2609C62.3973 91.1856 62.6824 91.1103 62.946 91.0404C63.2096 90.965 63.4679 90.9543 63.6992 90.9112C64.1673 90.8359 64.5654 90.7767 64.8882 90.7821C65.2002 90.7714 65.4477 90.766 65.6253 90.7552C65.8028 90.7445 65.8889 90.7445 65.8889 90.7498Z" fill="#E8505B"/>
<path d="M68.9555 103.312H67.9602L65.792 100.289V98.3034C65.792 98.3034 64.2533 98.2065 64.4363 100.805C64.6192 103.404 64.4201 102.742 64.4201 102.742C64.4201 102.742 61.1545 102.753 60.8855 103.038C60.6864 103.242 60.6003 106.486 60.5627 108.246C60.5465 109.133 61.0899 109.951 61.913 110.161C62.0314 110.193 62.1498 110.209 62.2627 110.209C63.0751 110.209 67.2339 109.548 67.2339 109.548H68.9501V103.312H68.9555Z" fill="#FB4566"/>
<path d="M71.8015 102.763L71.1882 109.564H69.4881V102.903L71.8015 102.763Z" fill="#FB4566"/>
<path d="M92.0787 241.207V236.602L83.8311 236.548L83.7612 243.499L84.2723 243.536C86.548 243.682 95.8501 243.897 97.3726 243.423C99.0781 242.902 92.0787 241.207 92.0787 241.207Z" fill="#FB4566"/>
<path d="M97.5717 242.998C97.5717 243.074 94.4889 243.138 90.6799 243.138C86.8762 243.138 83.7881 243.074 83.7881 242.998C83.7881 242.923 86.8709 242.859 90.6799 242.859C94.4836 242.859 97.5717 242.923 97.5717 242.998Z" fill="#263238"/>
<path d="M92.2239 242.148C92.154 242.111 92.2132 241.869 92.3907 241.632C92.5683 241.39 92.7835 241.266 92.8373 241.32C92.8911 241.374 92.7781 241.578 92.6167 241.799C92.4553 242.014 92.2939 242.186 92.2239 242.148Z" fill="#263238"/>
<path d="M92.7512 242.45C92.6812 242.423 92.7189 242.148 92.8803 241.863C93.0417 241.573 93.2569 241.401 93.3161 241.449C93.3753 241.497 93.273 241.734 93.1224 241.998C92.9718 242.267 92.8211 242.477 92.7512 242.45Z" fill="#263238"/>
<path d="M86.2737 242.977C86.2414 242.998 86.1176 242.88 85.9401 242.676C85.7626 242.477 85.5258 242.191 85.2192 241.949C84.9125 241.713 84.5736 241.589 84.3261 241.562C84.0732 241.53 83.9118 241.567 83.8957 241.524C83.8796 241.492 84.0356 241.379 84.3315 241.363C84.622 241.341 85.0363 241.454 85.386 241.729C85.7357 241.998 85.9562 242.326 86.0961 242.557C86.2414 242.799 86.3059 242.955 86.2737 242.977Z" fill="#263238"/>
<path d="M92.2508 241.282C92.2939 241.347 92.1486 241.508 91.9119 241.594C91.6752 241.68 91.4654 241.653 91.4546 241.573C91.4438 241.497 91.6106 241.406 91.8151 241.331C92.0195 241.255 92.2078 241.218 92.2508 241.282Z" fill="#263238"/>
<path d="M92.1217 240.836C92.1271 240.911 91.9119 240.981 91.6321 240.981C91.3524 240.986 91.1318 240.927 91.1372 240.846C91.1426 240.771 91.3631 240.701 91.6268 240.701C91.8904 240.701 92.111 240.76 92.1217 240.836Z" fill="#263238"/>
<path d="M112.388 241.207V236.602L104.141 236.548L104.071 243.429L104.582 243.467C106.858 243.612 116.16 243.897 117.682 243.429C119.388 242.902 112.388 241.207 112.388 241.207Z" fill="#FB4566"/>
<path d="M117.881 243.009C117.881 243.085 114.798 243.149 110.989 243.149C107.186 243.149 104.098 243.085 104.098 243.009C104.098 242.934 107.18 242.869 110.989 242.869C114.798 242.869 117.881 242.934 117.881 243.009Z" fill="#263238"/>
<path d="M112.533 242.148C112.464 242.111 112.523 241.869 112.7 241.632C112.878 241.39 113.093 241.266 113.147 241.32C113.201 241.374 113.088 241.578 112.926 241.799C112.765 242.014 112.603 242.186 112.533 242.148Z" fill="#263238"/>
<path d="M113.061 242.45C112.991 242.423 113.028 242.148 113.19 241.863C113.351 241.573 113.566 241.401 113.626 241.449C113.685 241.497 113.583 241.734 113.432 241.998C113.281 242.267 113.136 242.477 113.061 242.45Z" fill="#263238"/>
<path d="M106.583 242.977C106.551 242.998 106.427 242.88 106.25 242.676C106.072 242.477 105.835 242.191 105.529 241.949C105.222 241.713 104.883 241.589 104.636 241.562C104.383 241.53 104.221 241.567 104.205 241.524C104.189 241.492 104.345 241.379 104.641 241.363C104.932 241.341 105.346 241.454 105.695 241.729C106.045 241.998 106.266 242.326 106.406 242.557C106.551 242.799 106.615 242.955 106.583 242.977Z" fill="#263238"/>
<path d="M112.56 241.282C112.598 241.347 112.458 241.508 112.221 241.594C111.985 241.68 111.775 241.653 111.764 241.573C111.753 241.497 111.92 241.406 112.125 241.331C112.334 241.255 112.517 241.218 112.56 241.282Z" fill="#263238"/>
<path d="M112.431 240.836C112.437 240.911 112.221 240.981 111.942 240.981C111.662 240.986 111.441 240.927 111.447 240.846C111.452 240.771 111.673 240.701 111.936 240.701C112.2 240.701 112.42 240.76 112.431 240.836Z" fill="#263238"/>
<path d="M142.774 104.609C142.559 104.388 142.032 104.49 142.032 104.49C142.032 104.49 142.123 103.861 142.027 103.56C141.93 103.253 141.252 103.312 141.252 103.312C141.252 103.312 141.209 103.022 141.268 102.548C141.284 102.43 141.22 102.344 141.112 102.279C140.789 102.085 140.101 102.096 140.101 102.096C139.686 101.8 141.365 99.4493 141.989 98.6961C142.602 97.9537 142.5 97.3565 141.946 97.3565C141.569 97.3565 139.606 99.6161 139.008 100.375C138.411 101.133 136.803 103.242 136.749 101.558C136.695 99.8743 136.017 98.5992 135.598 98.384C135.172 98.1688 134.721 98.6746 134.952 99.1426C135.14 99.5192 135.259 100.251 135.328 100.8C135.382 101.252 135.366 101.714 135.264 102.161C134.984 103.42 134.683 104.243 134.538 104.593L134.495 104.571C134.495 104.571 122.75 115.831 121.905 116.633C121.141 117.354 105.884 115.778 102.828 115.455C101.994 115.363 100.757 115.191 99.6806 115.24C98.3571 115.299 98.1204 115.487 96.7916 115.503C92.7297 115.557 89.3403 115.955 86.8224 116.38C83.7774 116.897 81.2757 119.065 80.3342 122.008C77.2514 131.638 70.2682 154.433 69.0254 167.237C68.0462 169.077 66.9487 171.229 66.5076 172.44C65.6414 174.796 65.8512 174.872 66.1417 174.925C66.9218 175.071 67.8203 170.842 68.1538 171.864C68.4874 172.886 66.4591 176.905 67.2823 177.024C68.3583 177.18 69.2137 172.736 69.3105 172.364C69.4074 172.004 69.9508 172.128 69.8432 172.456C69.6871 172.929 68.1753 177.949 69.2244 178.11C69.8109 178.202 69.87 177.136 69.87 177.136C69.87 177.136 70.9407 172.338 71.4356 172.429C71.936 172.52 71.4033 175.361 71.1559 176.308C70.9084 177.244 71.2581 177.739 71.7584 177.502C72.1028 177.341 72.9259 174.468 73.1518 173.527C73.3724 172.585 73.9427 169.997 74.7013 171.498C75.4599 172.999 76.6112 173.871 77.0846 173.892C77.5581 173.908 77.7571 173.258 77.3483 172.929C77.0147 172.666 76.6004 172.058 76.3099 171.584C76.0678 171.197 75.8903 170.772 75.7934 170.325C75.4168 168.604 75.4168 167.603 75.4168 167.603L75.3308 167.049C76.5359 161.083 80.006 143.571 84.9986 132.386L87.0538 136.614L87.9468 139.745L82.47 153.271L105.825 152.964L102.344 139.546L106.572 125.558C111.151 125.661 122.911 125.833 124.886 124.95C127.35 123.848 140.101 107.778 140.101 107.778C140.961 107.094 141.838 106.352 142.484 105.712C142.479 105.706 143.242 105.093 142.774 104.609Z" fill="#FFBE9D"/>
<path d="M81.4478 143.318C82.1257 141.004 85.6066 129.567 85.6066 129.567C85.6066 129.567 87.3174 138.89 86.8655 140.014C86.349 141.311 85.3967 142.791 85.3967 142.791C81.4478 148.805 81.9643 151.813 81.9643 151.813L105.819 151.087C105.878 147.751 103.904 139.993 103.49 138.756C103.075 137.518 104.447 133.462 104.447 133.462C104.447 133.462 107.143 130.723 107.04 129.314C106.831 126.473 106.572 125.558 106.572 125.558L121.088 126.091L120.63 116.24L99.7667 114.153C99.0458 116.208 92.4714 115.202 92.4714 115.202C85.3752 115.433 84.9502 116.741 81.9912 119.032C79.0322 121.324 74.1633 140.994 74.1633 140.994L81.4478 143.318Z" fill="#FB4566"/>
<path d="M95.5542 140.988C95.5542 141.026 95.0754 141.058 94.2953 141.053C93.5205 141.047 92.4445 140.999 91.2663 140.881C90.0881 140.762 89.0229 140.596 88.2643 140.445C87.5003 140.294 87.0376 140.171 87.043 140.133C87.0484 140.095 87.5272 140.149 88.2966 140.251C89.0659 140.348 90.1204 140.483 91.2932 140.601C92.4661 140.719 93.5313 140.8 94.3006 140.854C95.0807 140.913 95.5596 140.951 95.5542 140.988Z" fill="#263238"/>
<path d="M97.1897 138.96C97.2004 138.992 96.7055 139.181 95.8877 139.407C95.07 139.627 93.9186 139.875 92.6274 140.031C91.3362 140.181 90.158 140.214 89.3134 140.192C88.4633 140.171 87.9415 140.101 87.9415 140.063C87.9415 140.02 88.4687 140.02 89.3134 139.993C90.158 139.966 91.3201 139.907 92.5952 139.751C93.8702 139.6 95.0162 139.385 95.8447 139.213C96.6678 139.041 97.1789 138.922 97.1897 138.96Z" fill="#263238"/>
<path d="M105.217 129.911C105.254 129.916 105.195 130.384 105.055 131.127C104.915 131.869 104.7 132.891 104.426 134.016C104.151 135.14 103.872 136.146 103.651 136.867C103.431 137.593 103.269 138.035 103.231 138.024C103.194 138.013 103.285 137.556 103.457 136.819C103.662 135.979 103.893 135.016 104.151 133.951C104.415 132.886 104.652 131.928 104.862 131.089C105.045 130.352 105.174 129.905 105.217 129.911Z" fill="#263238"/>
<path d="M81.7007 141.946C81.6792 142.021 80.0329 141.639 78.0261 141.09C76.014 140.542 74.4054 140.036 74.4269 139.961C74.4484 139.885 76.0947 140.273 78.1015 140.816C80.1082 141.365 81.7222 141.871 81.7007 141.946Z" fill="#263238"/>
<path d="M106.831 125.435C106.831 125.445 106.61 125.472 106.212 125.429C105.819 125.386 105.238 125.295 104.571 125.037C103.904 124.784 103.14 124.369 102.43 123.735C101.72 123.105 101.085 122.234 100.681 121.211C100.272 120.189 100.133 119.124 100.197 118.177C100.262 117.23 100.509 116.375 100.934 115.778C101.354 115.17 101.908 114.879 102.295 114.777C102.489 114.723 102.65 114.712 102.753 114.718C102.86 114.723 102.914 114.734 102.914 114.739C102.914 114.766 102.693 114.755 102.328 114.879C101.973 115.008 101.467 115.31 101.096 115.891C100.364 117.042 100.159 119.145 100.94 121.109C101.332 122.094 101.929 122.928 102.602 123.541C103.274 124.16 104.001 124.585 104.641 124.854C105.943 125.392 106.841 125.37 106.831 125.435Z" fill="#263238"/>
<path d="M119.371 125.897C119.296 125.897 119.237 123.675 119.242 120.942C119.248 118.204 119.312 115.982 119.393 115.982C119.468 115.982 119.527 118.204 119.522 120.942C119.517 123.675 119.452 125.897 119.371 125.897Z" fill="#263238"/>
<path d="M99.6376 114.755C99.6968 113.556 99.8205 112.2 99.8205 112.2C99.8205 112.2 102.79 111.872 102.968 108.805C103.145 105.739 102.968 98.6638 102.968 98.6638L97.5609 95.9093L91.616 100.606L92.5198 115.939L97.9913 116.289C98.8521 116.342 99.5945 115.654 99.6376 114.755Z" fill="#FFBE9D"/>
<path d="M100.17 106.379C100.181 106.379 100.181 106.438 100.122 106.513C100.068 106.583 99.9496 106.669 99.7829 106.664C99.4385 106.648 99.105 106.266 98.9866 105.803C98.9274 105.566 98.9274 105.33 98.9705 105.12C99.0081 104.915 99.1265 104.711 99.2933 104.657C99.374 104.625 99.46 104.63 99.5192 104.663C99.5838 104.695 99.6215 104.743 99.643 104.786C99.6806 104.878 99.6537 104.932 99.643 104.926C99.6322 104.926 99.6322 104.878 99.5892 104.819C99.5461 104.759 99.4439 104.706 99.3363 104.765C99.2233 104.819 99.1426 104.964 99.1157 105.147C99.0834 105.33 99.0835 105.545 99.1426 105.755C99.2502 106.169 99.5408 106.513 99.7936 106.546C99.9227 106.562 100.025 106.513 100.084 106.465C100.138 106.416 100.159 106.373 100.17 106.379Z" fill="#EB996E"/>
<path d="M104.813 97.0122C104.399 95.6026 102.898 94.8978 101.531 94.5105C99.4493 93.9187 97.1951 93.6604 95.1668 94.4082C93.1332 95.1561 90.6906 96.4742 90.6906 98.7176C89.4909 98.6208 88.8076 99.6699 88.3288 100.972C88.0491 101.741 87.8608 102.597 87.8177 103.447L87.7962 103.441C87.6402 106.379 86.8224 110.43 84.9179 112.603C83.8634 113.803 82.3516 114.632 81.7383 116.127C81.2057 117.429 81.4801 118.963 80.9797 120.275C80.5332 121.432 79.5487 122.255 78.8439 123.261C77.3052 125.456 77.203 128.555 78.3328 131.003C79.4626 133.451 81.7007 135.242 84.1862 136.066C86.6718 136.889 89.3833 136.797 91.9119 136.136C93.7788 135.651 95.5972 134.844 97.0875 133.569C98.5777 132.3 99.7183 130.53 100.057 128.555C100.434 126.355 99.8205 124.127 99.3686 121.943C97.9375 115.035 98.3464 114.68 100.154 108.272C100.197 108.16 100.219 108.041 100.251 107.928C100.272 107.842 100.299 107.761 100.321 107.675H100.315C100.364 107.422 100.402 107.17 100.402 106.911C99.8797 107.116 99.2448 106.981 98.8467 106.572C98.4432 106.169 98.298 105.513 98.4809 104.964C98.6907 104.329 99.2717 103.909 99.8689 103.656C100.466 103.404 101.106 103.28 101.693 103C102.936 102.408 103.796 101.182 104.383 99.8958C104.786 98.992 105.093 97.9644 104.813 97.0122Z" fill="#263238"/>
<path d="M100.385 106.508C100.402 106.502 100.509 106.702 100.671 107.04C100.832 107.379 101.047 107.858 101.284 108.412L101.327 108.515L101.214 108.525C101.036 108.541 100.853 108.558 100.665 108.574C100.289 108.601 99.9765 108.644 99.6107 108.638C99.5515 108.628 99.4869 108.574 99.4708 108.515C99.4493 108.455 99.4547 108.407 99.46 108.364C99.4762 108.278 99.4923 108.219 99.5085 108.143L99.6053 107.761C99.7237 107.299 99.8097 107.014 99.8313 107.019C99.8528 107.024 99.8097 107.32 99.7183 107.788L99.643 108.176C99.6161 108.305 99.5676 108.498 99.6376 108.488C99.9066 108.477 100.289 108.434 100.644 108.407C100.832 108.391 101.009 108.38 101.192 108.364L101.122 108.477C100.891 107.923 100.697 107.433 100.563 107.084C100.434 106.734 100.364 106.519 100.385 106.508Z" fill="#E8505B"/>
<path d="M81.9643 151.807L105.819 151.081L116.192 191.614L114.282 238.108H101.655L103.221 192.604L93.994 164.386L95.4143 239.91L82.6691 240.099L81.3241 169.11C81.2703 167.135 80.6193 162.686 80.8614 160.727L81.9643 151.807Z" fill="#263238"/>
<path d="M97.1735 164.962C97.1681 164.999 96.7216 164.978 96.0061 164.892C95.2905 164.806 94.3006 164.655 93.2192 164.44C92.1378 164.219 91.1694 163.977 90.4754 163.778C89.7814 163.579 89.3618 163.428 89.3671 163.391C89.3887 163.315 91.121 163.735 93.273 164.165C95.425 164.596 97.1843 164.881 97.1735 164.962Z" fill="#455A64"/>
<path d="M114.169 235.558C114.169 235.633 111.312 235.698 107.783 235.698C104.254 235.698 101.397 235.633 101.397 235.558C101.397 235.483 104.254 235.418 107.783 235.418C111.312 235.418 114.169 235.477 114.169 235.558Z" fill="#455A64"/>
<path d="M95.3067 237.947C95.3067 238.022 92.536 238.087 89.1143 238.087C85.6926 238.087 82.9219 238.022 82.9219 237.947C82.9219 237.871 85.6926 237.807 89.1143 237.807C92.5306 237.807 95.3067 237.871 95.3067 237.947Z" fill="#455A64"/>
<path d="M93.6604 237.753C93.5851 237.753 93.2461 221.253 92.9126 200.9C92.579 180.542 92.3692 164.036 92.4445 164.036C92.5198 164.036 92.8588 180.537 93.1923 200.895C93.5313 221.247 93.7411 237.753 93.6604 237.753Z" fill="#455A64"/>
<path d="M112.474 235.558C112.469 235.558 112.469 235.483 112.469 235.337C112.474 235.181 112.474 234.966 112.48 234.692C112.496 234.111 112.523 233.277 112.55 232.217C112.625 230.049 112.733 226.945 112.867 223.109C113.163 215.404 113.566 204.79 114.018 193.061C114.024 192.954 114.029 192.846 114.029 192.744L114.034 192.782C111.205 181.462 108.649 171.229 106.798 163.81C105.889 160.114 105.152 157.123 104.641 155.035C104.394 154.008 104.205 153.206 104.071 152.647C104.012 152.383 103.963 152.179 103.931 152.023C103.899 151.883 103.888 151.807 103.893 151.807C103.899 151.807 103.92 151.877 103.958 152.017C104.001 152.168 104.055 152.372 104.125 152.631C104.27 153.19 104.48 153.986 104.749 155.009C105.281 157.091 106.051 160.077 106.992 163.762C108.864 171.175 111.447 181.403 114.309 192.717L114.314 192.738V192.76C114.309 192.857 114.303 192.97 114.303 193.077C113.825 204.8 113.389 215.421 113.071 223.119C112.899 226.95 112.765 230.06 112.668 232.222C112.614 233.288 112.571 234.116 112.544 234.697C112.528 234.971 112.512 235.181 112.507 235.343C112.49 235.483 112.48 235.558 112.474 235.558Z" fill="#455A64"/>
<path d="M108.359 191.797C108.369 191.872 107.121 192.152 105.572 192.416C104.41 192.615 103.409 192.749 102.973 192.776V192.669C103.118 192.706 103.199 192.738 103.194 192.76C103.188 192.782 103.108 192.787 102.957 192.782L102.629 192.765L102.952 192.669C103.371 192.545 104.361 192.34 105.523 192.141C107.078 191.872 108.348 191.722 108.359 191.797Z" fill="#455A64"/>
<path d="M108.122 193.341C108.111 193.416 106.992 193.33 105.609 193.228C104.227 193.12 103.108 193.029 103.108 192.954C103.108 192.878 104.237 192.841 105.631 192.948C107.019 193.056 108.127 193.266 108.122 193.341Z" fill="#455A64"/>
<path opacity="0.2" d="M81.8621 152.663C82.4377 153.475 83.2609 153.76 84.2185 153.916C85.1761 154.072 86.1499 153.97 87.1129 153.863C93.273 153.179 99.7936 152.55 105.825 151.081C98.0182 151.517 89.776 151.372 81.9697 151.807C81.9697 151.807 81.9051 152.345 81.889 152.475" fill="black"/>
<g opacity="0.2">
<path d="M89.9052 163.665L94.306 180.741L93.9993 164.386L89.9052 163.665Z" fill="black"/>
</g>
</svg>
